<?xml version="1.0" encoding="UTF-8" standalone="no"?><!DOCTYPE svg PUBLIC "-//W3C//DTD SVG 1.1//EN" "http://www.w3.org/Graphics/SVG/1.1/DTD/svg11.dtd"><svg width="100%" height="100%" viewBox="0 0 700 400" version="1.1" xmlns="http://www.w3.org/2000/svg" xmlns:xlink="http://www.w3.org/1999/xlink" xml:space="preserve" xmlns:serif="http://www.serif.com/" style="fill-rule:evenodd;clip-rule:evenodd;stroke-linejoin:round;stroke-miterlimit:1.41421;"><g><path d="M394.163,39.524l-5.46,2.73l0,47.97l5.46,2.73l13.4,-26.72l-13.4,-26.71Z" style="fill:#8c3123;fill-rule:nonzero;"/><path d="M422.623,86.054l-28.46,6.89l0,-53.42l28.46,6.89l13.45,19.9l-13.45,19.74Z" style="fill:#e05243;fill-rule:nonzero;"/><path d="M422.623,86.054l28.45,6.89l4.92,-26.03l-4.92,-27.39l-28.45,6.89l0,39.64Z" style="fill:#8c3123;fill-rule:nonzero;"/><path d="M451.073,39.524l5.47,2.73l0,47.97l-5.47,2.73l0,-53.43Z" style="fill:#e05243;fill-rule:nonzero;"/><path d="M410.213,75.074l12.41,1.59l9.84,-10.35l-9.84,-10.34l-12.41,1.56l0,17.54Z" style="fill:#8c3123;fill-rule:nonzero;"/><path d="M435.033,49.044l-12.41,2.26l-12.41,-2.26l12.41,-23.75l12.41,23.75Z" style="fill:#5e1f18;fill-rule:nonzero;"/><path d="M435.033,83.544l-12.41,-2.28l-12.41,2.28l12.41,23.75l12.41,-23.75Z" style="fill:#f2b0a9;fill-rule:nonzero;"/><path d="M435.033,49.044l-12.41,-3.07l0,-20.68l12.41,6.2l0,17.55Z" style="fill:#e05243;fill-rule:nonzero;"/><path d="M410.213,49.044l12.41,-3.07l0,-20.68l-12.41,6.2l0,17.55Z" style="fill:#8c3123;fill-rule:nonzero;"/><path d="M422.623,107.294l12.41,-6.2l0,-17.55l-12.41,3.07l0,20.68Z" style="fill:#e05243;fill-rule:nonzero;"/><path d="M422.623,107.294l-12.41,-6.2l0,-17.55l12.41,3.07l0,20.68Z" style="fill:#8c3123;fill-rule:nonzero;"/><path d="M435.033,75.074l-12.41,1.59l0,-20.69l12.41,1.56l0,17.54Z" style="fill:#e05243;fill-rule:nonzero;"/></g><g><path d="M569.556,301.102l4.34,2.17l7.67,-26.25l-7.67,-26.33l-4.34,2.17l0,48.24Z" style="fill:#9d5025;fill-rule:nonzero;"/><path d="M582.296,252.692l-8.4,-1.97l0,52.55l8.4,-1.97l0,-48.61Z" style="fill:#f58536;fill-rule:nonzero;"/><path d="M579.116,248.082l6.37,-3.19l7.95,32.13l-7.95,32.05l-6.37,-3.19l0,-57.8Z" style="fill:#9d5025;fill-rule:nonzero;"/><path d="M598.536,304.792l-13.05,4.16l0,-64.06l13.05,4.17l0,55.73Z" style="fill:#f58536;fill-rule:nonzero;"/><path d="M628.166,256.152l5.22,0l0,39.95l-5.22,-0.29l0,-39.66Z" style="fill:#9d5025;fill-rule:nonzero;"/><path d="M607.916,256.732l5.86,-3.02l19.2,2.44l0.57,5.11l-5.26,0.74l-20.37,-5.27Z" style="fill:#6b3a19;fill-rule:nonzero;"/><path d="M608.086,297.232l5.85,3.02l19.77,-7.56l-5.25,-0.73l-20.37,5.27Z" style="fill:#fbbf93;fill-rule:nonzero;"/><path d="M609.566,288.752l10.45,1.4l0,-26.34l-10.45,1.39l0,23.55Z" style="fill:#9d5025;fill-rule:nonzero;"/><path d="M593.436,313.042l10.2,5.1l8.76,-41.22l-8.76,-41.1l-10.2,5.1l0,72.12Z" style="fill:#9d5025;fill-rule:nonzero;"/><path d="M603.646,235.822l0,82.32l34.1,-17.05l0,-48.22l-34.1,-17.05Zm29.74,56.93l-19.55,5.87l0,-43.28l19.54,5.86l0.01,31.55Z" style="fill:#f58536;fill-rule:nonzero;"/><path d="M620.016,263.812l0,26.42l10.87,-13.21l-10.87,-13.21Z" style="fill:#f58536;fill-rule:nonzero;"/></g><path d="M94.762,146.34c0.003,0 0.007,0 0.01,0c1.708,0 3.114,1.402 3.12,3.11l7.14,47.55c-0.006,1.708 -1.412,3.11 -3.12,3.11c-0.003,0 -0.007,0 -0.01,0l-30.28,0c-1.71,0 -3.119,-1.401 -3.13,-3.11l8.89,-47.54c0.011,-1.709 1.42,-3.11 3.13,-3.11l14.25,-0.01Z" style="fill:#7d7c7c;fill-rule:nonzero;"/><path d="M101.902,143.86c0.003,0 0.007,0 0.01,0c1.712,0 3.12,1.408 3.12,3.12c0,0.007 0,0.013 0,0.02l0,47.5c-0.006,1.708 -1.412,3.11 -3.12,3.11c-0.003,0 -0.007,0 -0.01,0l-30.28,0c-1.71,0 -3.119,-1.401 -3.13,-3.11l0,-47.5c0.011,-1.709 1.42,-3.11 3.13,-3.11l30.28,-0.03Z" style="fill:#d2d3d3;fill-rule:nonzero;"/><path d="M77.632,147.31l18.21,0c1.114,0 2.03,0.916 2.03,2.03c0,1.114 -0.916,2.03 -2.03,2.03l-18.21,0c-1.114,0 -2.03,-0.916 -2.03,-2.03c0,-1.114 0.916,-2.03 2.03,-2.03l0,0Zm9.13,48.89c-1.934,-0.011 -3.52,-1.606 -3.52,-3.54c0,-1.942 1.598,-3.54 3.54,-3.54c1.938,0 3.534,1.592 3.54,3.53c0,0 0,0 0,0c0,1.947 -1.603,3.55 -3.55,3.55c-0.003,0 -0.007,0 -0.01,0Zm14.71,-11.34c-0.074,1.078 -1.01,1.911 -2.09,1.86l-25.3,0c-1.08,0.051 -2.016,-0.782 -2.09,-1.86l0,-28.28c0.074,-1.078 1.01,-1.911 2.09,-1.86l25.3,0c1.08,-0.051 2.016,0.782 2.09,1.86l0,28.28Z" style="fill:#fff;fill-rule:nonzero;"/><g><path d="M456.723,282.132l-16.56,-0.68l-10.73,0.68l17.71,24.08l9.58,-24.08Z" style="fill:#fad791;fill-rule:nonzero;"/><path d="M456.723,272.162l-16.56,0.68l-10.73,-0.68l17.71,-24.08l9.58,24.08Z" style="fill:#624a1e;fill-rule:nonzero;"/><path d="M388.523,272.132l16.56,0.71l10.73,-0.68l-17.71,-23.96l-9.58,23.93Z" style="fill:#624a1e;fill-rule:nonzero;"/><path d="M388.523,282.132l16.56,-0.68l10.73,0.68l-17.71,24.1l-9.58,-24.1Z" style="fill:#fad791;fill-rule:nonzero;"/><path d="M447.143,271.202l9.58,0.96l0,-19.29l-9.58,-4.79l0,23.12Z" style="fill:#d9a741;fill-rule:nonzero;"/><path d="M429.433,252.862l17.71,-4.78l0,23.12l-17.71,0.96l0,-19.3Z" style="fill:#876929;fill-rule:nonzero;"/><path d="M422.623,250.062l19.18,6.27l0,9.54l-19.18,-3.38l0,-12.43Z" style="fill:#d9a741;fill-rule:nonzero;"/><path d="M413.983,264.062l8.78,-1.55l19.04,3.36l-8.51,0.93l-19.31,-2.74Z" style="fill:#624a1e;fill-rule:nonzero;"/><path d="M398.103,271.202l-9.58,0.93l0,-19.35l9.58,-4.72l0,23.14Z" style="fill:#876929;fill-rule:nonzero;"/><path d="M415.813,252.862l-17.71,-4.8l0,23.14l17.71,0.96l0,-19.3Z" style="fill:#d9a741;fill-rule:nonzero;"/><path d="M422.623,250.062l-19.18,6.27l0,9.54l19.18,-3.38l0,-12.43Z" style="fill:#876929;fill-rule:nonzero;"/><path d="M431.263,264.062l-8.78,-1.55l-19.04,3.36l8.51,0.93l19.31,-2.74Z" style="fill:#624a1e;fill-rule:nonzero;"/><path d="M447.143,283.092l9.58,-0.96l0,19.29l-9.58,4.79l0,-23.12Z" style="fill:#d9a741;fill-rule:nonzero;"/><path d="M429.433,301.432l17.71,4.78l0,-23.12l-17.71,-0.96l0,19.3Z" style="fill:#876929;fill-rule:nonzero;"/><path d="M422.623,304.232l19.18,-6.27l0,-9.54l-19.18,3.38l0,12.43Z" style="fill:#d9a741;fill-rule:nonzero;"/><path d="M413.983,290.232l8.78,1.54l19.04,-3.35l-8.51,-0.93l-19.31,2.74Z" style="fill:#fad791;fill-rule:nonzero;"/><path d="M398.103,283.092l-9.58,-0.96l0,19.29l9.58,4.81l0,-23.14Z" style="fill:#876929;fill-rule:nonzero;"/><path d="M415.813,301.432l-17.71,4.8l0,-23.14l17.71,-0.96l0,19.3Z" style="fill:#d9a741;fill-rule:nonzero;"/><path d="M422.623,304.232l-19.18,-6.27l0,-9.54l19.18,3.38l0,12.43Z" style="fill:#876929;fill-rule:nonzero;"/><path d="M431.263,290.232l-8.78,1.54l-19.04,-3.35l8.51,-0.93l19.31,2.74Z" style="fill:#fad791;fill-rule:nonzero;"/><path d="M412.423,313.042l10.2,5.1l5.66,-2.83l4.54,-74.39l-10.2,-5.1l-10.2,5.1l0,72.12Z" style="fill:#876929;fill-rule:nonzero;"/><path d="M432.823,313.042l-10.2,5.1l0,-82.32l10.2,5.1l0,72.12Z" style="fill:#d9a741;fill-rule:nonzero;"/></g><g><path d="M237.075,178.97l-15.62,20.97l-8.18,-20.93l14.92,-0.91l8.88,0.87Z" style="fill:#fbbf93;fill-rule:nonzero;"/><path d="M257.435,178.97l15.78,21.09l8.02,-21.03l-14.76,-0.93l-9.04,0.87Z" style="fill:#fbbf93;fill-rule:nonzero;"/><path d="M237.075,164.97l-15.62,-21.03l-8.18,21.05l15.05,0.9l8.75,-0.92Z" style="fill:#6b3a19;fill-rule:nonzero;"/><path d="M257.435,164.97l15.78,-21.03l8.18,21.05l-14.92,0.91l-9.04,-0.93Z" style="fill:#6b3a19;fill-rule:nonzero;"/><path d="M257.435,164.97l15.78,-1.17l0,-19.86l-15.78,4.08l0,16.95Z" style="fill:#9d5025;fill-rule:nonzero;"/><path d="M281.395,164.99l-8.18,-1.19l0,-19.86l8.18,4.09l0,16.96Z" style="fill:#f58536;fill-rule:nonzero;"/><path d="M257.435,178.97l15.78,1.23l0,19.86l-15.78,-4.14l0,-16.95Z" style="fill:#9d5025;fill-rule:nonzero;"/><path d="M281.235,179.03l-8.02,1.17l0,19.86l8.02,-4.01l0,-17.02Z" style="fill:#f58536;fill-rule:nonzero;"/><path d="M237.075,164.97l-15.62,-1.17l0,-19.86l15.62,4.08l0,16.95Z" style="fill:#f58536;fill-rule:nonzero;"/><path d="M213.275,164.99l8.18,-1.19l0,-19.86l-8.18,4.09l0,16.96Z" style="fill:#9d5025;fill-rule:nonzero;"/><path d="M237.075,178.97l-15.62,1.23l0,19.86l15.62,-4.14l0,-16.95Z" style="fill:#f58536;fill-rule:nonzero;"/><path d="M213.275,179.01l8.18,1.19l0,19.86l-8.18,-4.09l0,-16.96Z" style="fill:#9d5025;fill-rule:nonzero;"/><path d="M263.595,181.59l-16.26,-1.61l-16.42,1.59l16.42,31.43l16.26,-31.41Z" style="fill:#fbbf93;fill-rule:nonzero;"/><path d="M263.595,162.41l-16.26,1.61l-16.42,-1.59l16.42,-31.43l16.26,31.41Z" style="fill:#6b3a19;fill-rule:nonzero;"/><path d="M263.595,162.41l-16.26,-2.36l0,-29.05l16.26,8.13l0,23.28Z" style="fill:#f58536;fill-rule:nonzero;"/><path d="M230.915,162.43l16.42,-2.38l0,-29.05l-16.42,8.21l0,23.22Z" style="fill:#9d5025;fill-rule:nonzero;"/><path d="M263.595,181.59l-16.26,2.36l0,29.05l16.26,-8.13l0,-23.28Z" style="fill:#f58536;fill-rule:nonzero;"/><path d="M230.915,181.57l16.42,2.38l0,29.05l-16.42,-8.21l0,-23.22Z" style="fill:#9d5025;fill-rule:nonzero;"/></g><path d="M303.274,149.053l-2.779,-3.032l70.693,-64.809l2.779,3.032l-70.693,64.809Z" style="fill:#a9a9a9;"/><path d="M300.916,207.234l2.705,-3.098l72.244,63.075l-2.704,3.098l-72.245,-63.075Z" style="fill:#a9a9a9;"/><path d="M469.262,280.191l-0.027,-3.63l86.963,-0.661l0.027,3.63l-86.963,0.661Z" style="fill:#a9a9a9;"/><path d="M115.999,175.919l-0.028,-3.63l86.963,-0.661l0.027,3.63l-86.962,0.661Z" style="fill:#a9a9a9;"/><g transform="matrix(1,0,0,1,-116.55,-100.388)"><text x="330.745px" y="168.832px" style="font-family:'HiraKakuPro-W3', 'Hiragino Kaku Gothic Pro', sans-serif;font-weight:300;font-size:18px;">画像・JS・CSS</text><text x="330.745px" y="195.832px" style="font-family:'HiraKakuPro-W3', 'Hiragino Kaku Gothic Pro', sans-serif;font-weight:300;font-size:18px;">はこっち</text></g><text x="63.315px" y="240.363px" style="font-family:'Futura-Medium', 'Futura', sans-serif;font-weight:500;font-size:18px;">Client</text><text x="203.444px" y="239.246px" style="font-family:'Futura-Medium', 'Futura', sans-serif;font-weight:500;font-size:18px;">CloudF<tspan x="260.933px 267.507px 278.326px " y="239.246px 239.246px 239.246px ">ron</tspan>t</text><text x="412.241px" y="132.567px" style="font-family:'Futura-Medium', 'Futura', sans-serif;font-weight:500;font-size:18px;">S3</text><text x="368.947px" y="342.795px" style="font-family:'Futura-Medium', 'Futura', sans-serif;font-weight:500;font-size:18px;">API Gat<tspan x="433.898px 443.584px 457.224px 468.175px " y="342.795px 342.795px 342.795px 342.795px ">eway</tspan></text><text x="574.248px" y="344.028px" style="font-family:'Futura-Medium', 'Futura', sans-serif;font-weight:500;font-size:18px;">Lambda</text></svg>