<?xml version="1.0" standalone="no"?>
<!DOCTYPE svg PUBLIC "-//W3C//DTD SVG 20010904//EN"
 "http://www.w3.org/TR/2001/REC-SVG-20010904/DTD/svg10.dtd">
<svg version="1.0" xmlns="http://www.w3.org/2000/svg"
 width="700.000000pt" height="700.000000pt" viewBox="0 0 700.000000 700.000000"
 preserveAspectRatio="xMidYMid meet">
<metadata>
Created by potrace 1.11, written by Peter Selinger 2001-2013
</metadata>
<g transform="translate(0.000000,700.000000) scale(0.100000,-0.100000)"
fill="#000000" stroke="none">
<path d="M3527 5916 c-65 -32 -92 -59 -133 -132 -73 -130 -104 -281 -100 -489
2 -77 6 -151 9 -165 4 -14 8 -38 10 -55 7 -47 37 -154 63 -220 84 -218 208
-346 338 -347 145 -1 260 154 306 415 12 67 17 282 7 342 -2 17 -8 53 -12 80
-4 28 -14 75 -22 105 -8 30 -16 62 -18 70 -2 8 -17 48 -33 88 -105 256 -272
380 -415 308z"/>
<path d="M2288 5385 c-56 -19 -85 -41 -123 -93 -175 -241 -77 -789 192 -1078
46 -48 144 -117 192 -133 85 -28 188 -3 247 61 44 47 60 77 86 154 20 61 23
88 22 229 0 171 -12 238 -70 391 -79 211 -219 387 -362 454 -55 26 -135 33
-184 15z"/>
<path d="M4735 5351 c-105 -49 -196 -211 -239 -425 -49 -240 -35 -520 36 -716
109 -304 304 -364 451 -140 20 30 41 68 47 85 6 16 17 43 25 60 45 101 74 305
70 485 -6 270 -60 459 -167 583 -71 83 -143 105 -223 68z"/>
<path d="M1495 4000 c-101 -16 -171 -81 -205 -191 -83 -266 75 -659 347 -867
123 -95 270 -125 371 -76 64 31 115 95 137 172 19 62 26 189 14 242 -4 19 -10
49 -12 65 -9 53 -44 150 -82 225 -36 71 -83 150 -96 160 -4 3 -22 24 -41 47
-86 103 -234 202 -325 219 -60 11 -66 11 -108 4z"/>
<path d="M3548 3945 c-2 -2 -32 -6 -68 -9 -176 -16 -292 -62 -480 -190 -291
-198 -518 -527 -635 -921 -24 -80 -32 -112 -51 -205 -23 -108 -32 -233 -28
-385 2 -93 6 -181 8 -195 56 -311 151 -510 315 -661 185 -170 442 -226 681
-149 162 53 318 154 456 295 72 74 197 229 206 256 2 6 26 2 58 -10 87 -32
226 -70 299 -81 36 -6 78 -13 93 -16 46 -7 240 -8 298 0 308 42 523 190 623
432 13 32 28 77 32 99 5 22 10 47 12 55 12 49 7 216 -8 296 -24 121 -24 120
-54 199 -243 639 -969 1160 -1657 1189 -53 2 -98 2 -100 1z"/>
</g>
</svg>
