<?xml version="1.0" encoding="UTF-8" standalone="no"?><!DOCTYPE svg PUBLIC "-//W3C//DTD SVG 1.1//EN" "http://www.w3.org/Graphics/SVG/1.1/DTD/svg11.dtd"><svg width="100%" height="100%" viewBox="0 0 200 200" version="1.1" xmlns="http://www.w3.org/2000/svg" xmlns:xlink="http://www.w3.org/1999/xlink" xml:space="preserve" xmlns:serif="http://www.serif.com/" style="fill-rule:evenodd;clip-rule:evenodd;stroke-linejoin:round;stroke-miterlimit:1.41421;"><g><path d="M45.209,88.459c5.135,-3.118 13.307,1.368 18.238,10.012c4.932,8.643 4.768,18.192 -0.367,21.31c-5.134,3.118 -13.306,-1.369 -18.238,-10.012c-4.931,-8.644 -4.767,-18.193 0.367,-21.31Z" style="fill:#393939;"/><path d="M70.4,47.961c5.73,-1.926 13.06,4.884 16.358,15.197c3.298,10.314 1.324,20.252 -4.406,22.178c-5.729,1.927 -13.059,-4.883 -16.357,-15.197c-3.299,-10.314 -1.324,-20.251 4.405,-22.178Z" style="fill:#393939;"/><path d="M107.72,32.244c5.778,-0.528 11.383,8.209 12.51,19.499c1.127,11.289 -2.649,20.884 -8.427,21.412c-5.777,0.528 -11.383,-8.209 -12.509,-19.499c-1.127,-11.289 2.649,-20.883 8.426,-21.412Z" style="fill:#393939;"/><path d="M142.62,48.447c5.24,0.243 9.296,9.642 9.052,20.976c-0.244,11.335 -4.697,20.339 -9.937,20.096c-5.24,-0.243 -9.296,-9.642 -9.052,-20.976c0.244,-11.334 4.697,-20.339 9.937,-20.096Z" style="fill:#393939;"/><path d="M136.84,98.954c18.63,12.853 27.01,33.496 18.702,46.069c-8.308,12.573 -30.178,12.345 -48.808,-0.508c-18.631,-12.853 -27.011,-33.496 -18.703,-46.068c8.308,-12.573 30.178,-12.346 48.809,0.507Z" style="fill:#393939;"/><path d="M72.822,120.512c6.522,-20.842 23.339,-33.936 37.533,-29.221c14.193,4.714 20.421,25.463 13.9,46.305c-6.522,20.842 -23.34,33.936 -37.533,29.221c-14.193,-4.714 -20.422,-25.462 -13.9,-46.305Z" style="fill:#393939;"/></g></svg>