<?xml version="1.0" encoding="UTF-8" standalone="no"?><!DOCTYPE svg PUBLIC "-//W3C//DTD SVG 1.1//EN" "http://www.w3.org/Graphics/SVG/1.1/DTD/svg11.dtd"><svg width="100%" height="100%" viewBox="0 0 500 300" version="1.1" xmlns="http://www.w3.org/2000/svg" xmlns:xlink="http://www.w3.org/1999/xlink" xml:space="preserve" xmlns:serif="http://www.serif.com/" style="fill-rule:evenodd;clip-rule:evenodd;stroke-linejoin:round;stroke-miterlimit:1.41421;"><g><g><path d="M387.226,159.636l4.34,2.17l7.67,-26.25l-7.67,-26.33l-4.34,2.17l0,48.24Z" style="fill:#9d5025;fill-rule:nonzero;"/><path d="M399.966,111.226l-8.4,-1.97l0,52.55l8.4,-1.97l0,-48.61Z" style="fill:#f58536;fill-rule:nonzero;"/><path d="M396.786,106.616l6.37,-3.19l7.95,32.13l-7.95,32.05l-6.37,-3.19l0,-57.8Z" style="fill:#9d5025;fill-rule:nonzero;"/><path d="M416.206,163.326l-13.05,4.16l0,-64.06l13.05,4.17l0,55.73Z" style="fill:#f58536;fill-rule:nonzero;"/><path d="M445.836,114.686l5.22,0l0,39.95l-5.22,-0.29l0,-39.66Z" style="fill:#9d5025;fill-rule:nonzero;"/><path d="M425.586,115.266l5.86,-3.02l19.2,2.44l0.57,5.11l-5.26,0.74l-20.37,-5.27Z" style="fill:#6b3a19;fill-rule:nonzero;"/><path d="M425.756,155.766l5.85,3.02l19.77,-7.56l-5.25,-0.73l-20.37,5.27Z" style="fill:#fbbf93;fill-rule:nonzero;"/><path d="M427.236,147.286l10.45,1.4l0,-26.34l-10.45,1.39l0,23.55Z" style="fill:#9d5025;fill-rule:nonzero;"/><path d="M411.106,171.576l10.2,5.1l8.76,-41.22l-8.76,-41.1l-10.2,5.1l0,72.12Z" style="fill:#9d5025;fill-rule:nonzero;"/><path d="M421.316,94.356l0,82.32l34.1,-17.05l0,-48.22l-34.1,-17.05Zm29.74,56.93l-19.55,5.87l0,-43.28l19.54,5.86l0.01,31.55Z" style="fill:#f58536;fill-rule:nonzero;"/><path d="M437.686,122.346l0,26.42l10.87,-13.21l-10.87,-13.21Z" style="fill:#f58536;fill-rule:nonzero;"/></g><path d="M84.896,107.964c0.003,0 0.007,0 0.01,0c1.708,0 3.114,1.402 3.12,3.11l7.14,47.55c-0.006,1.708 -1.412,3.11 -3.12,3.11c-0.003,0 -0.007,0 -0.01,0l-30.28,0c-1.71,0 -3.119,-1.4 -3.13,-3.11l8.89,-47.54c0.011,-1.709 1.42,-3.11 3.13,-3.11l14.25,-0.01Z" style="fill:#7d7c7c;fill-rule:nonzero;"/><path d="M92.036,105.484c0.003,0 0.007,0 0.01,0c1.712,0 3.12,1.408 3.12,3.12c0,0.007 0,0.013 0,0.02l0,47.5c-0.006,1.708 -1.412,3.11 -3.12,3.11c-0.003,0 -0.007,0 -0.01,0l-30.28,0c-1.71,0 -3.119,-1.4 -3.13,-3.11l0,-47.5c0.011,-1.709 1.42,-3.11 3.13,-3.11l30.28,-0.03Z" style="fill:#d2d3d3;fill-rule:nonzero;"/><path d="M67.766,108.934l18.21,0c1.114,0 2.03,0.916 2.03,2.03c0,1.114 -0.916,2.03 -2.03,2.03l-18.21,0c-1.114,0 -2.03,-0.916 -2.03,-2.03c0,-1.114 0.916,-2.03 2.03,-2.03l0,0Zm9.13,48.89c-1.934,-0.011 -3.52,-1.605 -3.52,-3.54c0,-1.942 1.598,-3.54 3.54,-3.54c1.938,0 3.534,1.592 3.54,3.53c0,0 0,0 0,0c0,1.948 -1.603,3.55 -3.55,3.55c-0.003,0 -0.007,0 -0.01,0Zm14.71,-11.34c-0.075,1.078 -1.01,1.911 -2.09,1.86l-25.3,0c-1.08,0.051 -2.016,-0.782 -2.09,-1.86l0,-28.28c0.074,-1.078 1.01,-1.911 2.09,-1.86l25.3,0c1.08,-0.051 2.015,0.782 2.09,1.86l0,28.28Z" style="fill:#fff;fill-rule:nonzero;"/><g><path d="M274.393,139.666l-16.56,-0.68l-10.73,0.68l17.71,24.08l9.58,-24.08Z" style="fill:#fad791;fill-rule:nonzero;"/><path d="M274.393,129.696l-16.56,0.68l-10.73,-0.68l17.71,-24.08l9.58,24.08Z" style="fill:#624a1e;fill-rule:nonzero;"/><path d="M206.193,129.666l16.56,0.71l10.73,-0.68l-17.71,-23.96l-9.58,23.93Z" style="fill:#624a1e;fill-rule:nonzero;"/><path d="M206.193,139.666l16.56,-0.68l10.73,0.68l-17.71,24.1l-9.58,-24.1Z" style="fill:#fad791;fill-rule:nonzero;"/><path d="M264.813,128.736l9.58,0.96l0,-19.29l-9.58,-4.79l0,23.12Z" style="fill:#d9a741;fill-rule:nonzero;"/><path d="M247.103,110.396l17.71,-4.78l0,23.12l-17.71,0.96l0,-19.3Z" style="fill:#876929;fill-rule:nonzero;"/><path d="M240.293,107.596l19.18,6.27l0,9.54l-19.18,-3.38l0,-12.43Z" style="fill:#d9a741;fill-rule:nonzero;"/><path d="M231.653,121.596l8.78,-1.55l19.04,3.36l-8.51,0.93l-19.31,-2.74Z" style="fill:#624a1e;fill-rule:nonzero;"/><path d="M215.773,128.736l-9.58,0.93l0,-19.35l9.58,-4.72l0,23.14Z" style="fill:#876929;fill-rule:nonzero;"/><path d="M233.483,110.396l-17.71,-4.8l0,23.14l17.71,0.96l0,-19.3Z" style="fill:#d9a741;fill-rule:nonzero;"/><path d="M240.293,107.596l-19.18,6.27l0,9.54l19.18,-3.38l0,-12.43Z" style="fill:#876929;fill-rule:nonzero;"/><path d="M248.933,121.596l-8.78,-1.55l-19.04,3.36l8.51,0.93l19.31,-2.74Z" style="fill:#624a1e;fill-rule:nonzero;"/><path d="M264.813,140.626l9.58,-0.96l0,19.29l-9.58,4.79l0,-23.12Z" style="fill:#d9a741;fill-rule:nonzero;"/><path d="M247.103,158.966l17.71,4.78l0,-23.12l-17.71,-0.96l0,19.3Z" style="fill:#876929;fill-rule:nonzero;"/><path d="M240.293,161.766l19.18,-6.27l0,-9.54l-19.18,3.38l0,12.43Z" style="fill:#d9a741;fill-rule:nonzero;"/><path d="M231.653,147.766l8.78,1.54l19.04,-3.35l-8.51,-0.93l-19.31,2.74Z" style="fill:#fad791;fill-rule:nonzero;"/><path d="M215.773,140.626l-9.58,-0.96l0,19.29l9.58,4.81l0,-23.14Z" style="fill:#876929;fill-rule:nonzero;"/><path d="M233.483,158.966l-17.71,4.8l0,-23.14l17.71,-0.96l0,19.3Z" style="fill:#d9a741;fill-rule:nonzero;"/><path d="M240.293,161.766l-19.18,-6.27l0,-9.54l19.18,3.38l0,12.43Z" style="fill:#876929;fill-rule:nonzero;"/><path d="M248.933,147.766l-8.78,1.54l-19.04,-3.35l8.51,-0.93l19.31,2.74Z" style="fill:#fad791;fill-rule:nonzero;"/><path d="M230.093,170.576l10.2,5.1l5.66,-2.83l4.54,-74.39l-10.2,-5.1l-10.2,5.1l0,72.12Z" style="fill:#876929;fill-rule:nonzero;"/><path d="M250.493,170.576l-10.2,5.1l0,-82.32l10.2,5.1l0,72.12Z" style="fill:#d9a741;fill-rule:nonzero;"/></g><path d="M286.933,137.725l-0.028,-3.63l86.963,-0.661l0.027,3.63l-86.962,0.661Z" style="fill:#a9a9a9;"/><path d="M106.133,137.543l-0.028,-3.63l86.963,-0.661l0.027,3.63l-86.962,0.661Z" style="fill:#a9a9a9;"/><text x="53.449px" y="201.987px" style="font-family:'Futura-Medium', 'Futura', sans-serif;font-weight:500;font-size:18px;">Client</text><text x="186.617px" y="201.328px" style="font-family:'Futura-Medium', 'Futura', sans-serif;font-weight:500;font-size:18px;">API Gat<tspan x="251.568px 261.254px 274.894px 285.845px " y="201.328px 201.328px 201.328px 201.328px ">eway</tspan></text><text x="391.918px" y="201.562px" style="font-family:'Futura-Medium', 'Futura', sans-serif;font-weight:500;font-size:18px;">Lambda</text></g></svg>