<svg xmlns="http://www.w3.org/2000/svg" viewBox="0 0 460 65.29"><title>logo_nekonote</title><g id="レイヤー_2" data-name="レイヤー 2"><g id="design"><path d="M0,60.58V23c0-2.4,1.33-3.82,3.74-3.82H7.65A3.5,3.5,0,0,1,11.47,23v4.18c2-5.69,7.39-9,14.33-9,11,0,16.9,8,16.9,20.37V60.58c0,2.4-1.43,3.73-3.83,3.73H35a3.38,3.38,0,0,1-3.74-3.73V39.05c0-7.74-3.38-11.3-8.09-11.3s-11.66,3.47-11.66,14.5V60.58c0,2.4-1.42,3.73-3.82,3.73H3.74A3.37,3.37,0,0,1,0,60.58Z" style="fill:#333"/><path d="M52,41.9C52,29,61.82,18.15,76.5,18.15c12.09,0,22.59,7.29,23.48,21.7.18,2.31-1.33,3.56-3.74,3.56H63.06c-.17,6.85,5.87,12.45,15.21,12.45a20.38,20.38,0,0,0,11.12-3.29c2-1.15,3.74-1,5.25.71l.8,1C97,56,97,58.26,94.73,60a27.26,27.26,0,0,1-17,5.34C61.73,65.29,52,54.8,52,41.9Zm37-5.7c-1.78-7.11-7.47-8.89-12.28-8.89-5,0-10.94,2-13.07,8.89Z" style="fill:#333"/><path d="M128.26,55.06l-7.56-12.9V60.58c0,2.4-1.42,3.73-3.82,3.73H113a3.37,3.37,0,0,1-3.73-3.73V3.74A3.37,3.37,0,0,1,113,0h3.92c2.4,0,3.82,1.33,3.82,3.74V37.8l12.45-16.36a5,5,0,0,1,4.54-2.31h4.63c3.2,0,4.18,2.13,2.22,4.62l-13,16.19,6.68,10.5c2.31,3.47,3.82,5.24,7.11,5.24a9.52,9.52,0,0,0,3.38-.62c1.51-.53,2.4-.26,3.12,1l1.69,3.47c.62,1.25.17,2.85-2.14,4a18.12,18.12,0,0,1-8,1.78C135.11,65.29,131.38,60.31,128.26,55.06Z" style="fill:#333"/><path d="M156.37,41.72c0-13,10.58-23.57,24.37-23.57S205.2,28.82,205.2,41.72c0,13.08-10.67,23.57-24.46,23.57S156.37,54.8,156.37,41.72Zm37.71.09c0-7.83-5.87-14.06-13.34-14.06S167.4,34,167.4,41.81s5.87,13.87,13.34,13.87S194.08,49.55,194.08,41.81Z" style="fill:#333"/><path d="M215.22,40.3V34.07a1.87,1.87,0,0,1,2-2H244a1.87,1.87,0,0,1,2,2V40.3a1.87,1.87,0,0,1-2,2H217.26A1.87,1.87,0,0,1,215.22,40.3Z" style="fill:#333"/><path d="M258,60.58V23c0-2.4,1.34-3.82,3.74-3.82h3.91A3.51,3.51,0,0,1,269.51,23v4.18c2-5.69,7.38-9,14.32-9,11,0,16.9,8,16.9,20.37V60.58c0,2.4-1.42,3.73-3.82,3.73H293a3.37,3.37,0,0,1-3.73-3.73V39.05c0-7.74-3.38-11.3-8.1-11.3s-11.65,3.47-11.65,14.5V60.58c0,2.4-1.43,3.73-3.83,3.73h-3.91A3.38,3.38,0,0,1,258,60.58Z" style="fill:#333"/><path d="M310,41.72c0-13,10.59-23.57,24.37-23.57S358.8,28.82,358.8,41.72c0,13.08-10.67,23.57-24.46,23.57S310,54.8,310,41.72Zm37.72.09c0-7.83-5.87-14.06-13.35-14.06S321,34,321,41.81s5.87,13.87,13.34,13.87S347.69,49.55,347.69,41.81Z" style="fill:#333"/><path d="M371.7,49.64V27.84h-5a1.83,1.83,0,0,1-2.05-2V21.17a1.87,1.87,0,0,1,2.05-2h5.51l1.6-9.7A2.9,2.9,0,0,1,377,6.76h3.11A2.67,2.67,0,0,1,383,9.7v9.43h11.2a1.87,1.87,0,0,1,2.05,2V25.8a1.83,1.83,0,0,1-2.05,2H383V50.08c0,4.09,2,5.69,4.44,5.69A4.32,4.32,0,0,0,392,51.33a10.6,10.6,0,0,0-.09-1.6c-.18-1.43.27-2.23,1.69-2.23h4.72a2.09,2.09,0,0,1,2.31,1.6,18.41,18.41,0,0,1,.44,3.38c0,8.36-5.87,12.81-14.32,12.81C379.26,65.29,371.7,61.73,371.7,49.64Z" style="fill:#333"/><path d="M408.17,41.9c0-12.9,9.87-23.75,24.55-23.75,12.1,0,22.59,7.29,23.48,21.7.18,2.31-1.33,3.56-3.74,3.56H419.28c-.17,6.85,5.88,12.45,15.22,12.45a20.37,20.37,0,0,0,11.11-3.29c2-1.15,3.74-1,5.25.71l.8,1c1.61,1.78,1.52,4-.71,5.69a27.24,27.24,0,0,1-17,5.34C418,65.29,408.17,54.8,408.17,41.9Zm37-5.7c-1.78-7.11-7.47-8.89-12.28-8.89-5,0-10.94,2-13.07,8.89Z" style="fill:#333"/><path d="M427.76,10.51a5.29,5.29,0,1,0-6-4.41A5.28,5.28,0,0,0,427.76,10.51Z" style="fill:#333"/><path d="M417.06,7.83a5.29,5.29,0,1,0,.26,7.47A5.29,5.29,0,0,0,417.06,7.83Z" style="fill:#333"/><path d="M455.87,7.9a5.29,5.29,0,1,0,4,6.32A5.29,5.29,0,0,0,455.87,7.9Z" style="fill:#333"/><path d="M445.09,9.9a5.3,5.3,0,0,0,.76-7.44h0a5.29,5.29,0,1,0-.76,7.44Z" style="fill:#333"/></g></g></svg>